<svg xmlns="http://www.w3.org/2000/svg" viewBox="0 0 100 100" fill="none">
  <style>
    path { stroke: #000; }
    @media (prefers-color-scheme: dark) {
      path { stroke: #fff; }
    }
  </style>
  <!-- Stylized leaf contour -->
  <path d="M50 12 C20 18 15 62 50 88 C85 62 80 18 50 12 Z" stroke-width="4.5" stroke-linecap="round" stroke-linejoin="round" />
  <!-- Central main vein -->
  <path d="M50 88 V28" stroke-width="3" stroke-linecap="round" />
  <!-- Left hemisphere curves (representing brain lobes & veins) -->
  <path d="M50 78 C38 72 28 66 28 54 C28 42 38 42 50 42" stroke-width="3" stroke-linecap="round" />
  <path d="M50 62 C32 56 22 50 22 38 C22 26 32 26 50 32" stroke-width="3" stroke-linecap="round" />
  <path d="M50 40 C40 34 32 28 32 22 C32 16 40 16 50 19" stroke-width="3" stroke-linecap="round" />
  <!-- Right hemisphere curves -->
  <path d="M50 78 C62 72 72 66 72 54 C72 42 62 42 50 42" stroke-width="3" stroke-linecap="round" />
  <path d="M50 62 C68 56 78 50 78 38 C78 26 68 26 50 32" stroke-width="3" stroke-linecap="round" />
  <path d="M50 40 C60 34 68 28 68 22 C68 16 60 16 50 19" stroke-width="3" stroke-linecap="round" />
  <!-- Top focus node seed (Gold) -->
  <circle cx="50" cy="12" r="3.5" fill="#EAB308" />
</svg>
